<svg width="290" height="290" viewBox="0 0 290 290" fill="none" xmlns="http://www.w3.org/2000/svg">
<g id="Favicon T_white left">
<rect id="Rectangle 4" width="290" height="290" fill="#04112D"/>
<g id="Vector 52">
<path id="Vector 1" d="M144 40L105.5 82H119L144 55L168.5 82H182.5L144 40Z" fill="#B8976C" stroke="#B8976C"/>
</g>
<g id="Vector 53">
<path id="Vector 1_2" d="M37 146L79 185V171.325L52 146L79 121.182V107L37 146Z" fill="white" stroke="white"/>
</g>
<g id="Vector 54">
<path id="Vector 1_3" d="M145 251L184 209H170.325L145 236L120.182 209H106L145 251Z" fill="#B8976C" stroke="#B8976C"/>
</g>
<g id="Vector 55">
<path id="Vector 1_4" d="M250 146L208 107V120.675L235 146L208 170.818V185L250 146Z" fill="#B8976C" stroke="#B8976C"/>
</g>
<g id="Group 27">
<path id="Vector 25" d="M170.5 122H118V130.142H139V171H148.5V130.142H170.5V122Z" fill="white" stroke="white"/>
</g>
</g>
</svg>
